<svg xmlns="http://www.w3.org/2000/svg" viewBox="0 0 100 100">
  <!-- Soft dreamy background -->
  <circle cx="50" cy="50" r="48" fill="#FFF5F5"/>
  <!-- Magical sparkles -->
  <circle cx="20" cy="25" r="2" fill="#FFD700" opacity="0.6"/>
  <circle cx="80" cy="30" r="1.5" fill="#FFD700" opacity="0.6"/>
  <circle cx="15" cy="70" r="1.5" fill="#FFD700" opacity="0.5"/>
  <!-- Whimsical rabbit face -->
  <circle cx="50" cy="58" r="28" fill="#FFF0F0"/>
  <!-- Left ear with inner detail -->
  <ellipse cx="32" cy="22" rx="10" ry="24" fill="#FFF0F0"/>
  <ellipse cx="32" cy="22" rx="5" ry="16" fill="#FFCDD2"/>
  <!-- Right ear with inner detail -->
  <ellipse cx="68" cy="22" rx="10" ry="24" fill="#FFF0F0"/>
  <ellipse cx="68" cy="22" rx="5" ry="16" fill="#FFCDD2"/>
  <!-- Dreamy eyes with sparkles -->
  <circle cx="38" cy="52" r="8" fill="#fff"/>
  <circle cx="62" cy="52" r="8" fill="#fff"/>
  <circle cx="40" cy="54" r="5" fill="#8B6969"/>
  <circle cx="64" cy="54" r="5" fill="#8B6969"/>
  <circle cx="38" cy="52" r="2" fill="#fff"/>
  <circle cx="62" cy="52" r="2" fill="#fff"/>
  <!-- Tiny star in eyes -->
  <polygon points="42,50 42.5,51 43.5,51 42.7,51.6 43,52.5 42,52 41,52.5 41.3,51.6 40.5,51 41.5,51" fill="#fff" opacity="0.8"/>
  <polygon points="66,50 66.5,51 67.5,51 66.7,51.6 67,52.5 66,52 65,52.5 65.3,51.6 64.5,51 65.5,51" fill="#fff" opacity="0.8"/>
  <!-- Cute nose -->
  <ellipse cx="50" cy="65" rx="5" ry="4" fill="#FFCDD2"/>
  <!-- Rosy cheeks -->
  <circle cx="28" cy="62" r="6" fill="#FFCDD2" opacity="0.5"/>
  <circle cx="72" cy="62" r="6" fill="#FFCDD2" opacity="0.5"/>
  <!-- Sweet smile -->
  <path d="M 44 72 Q 50 78 56 72" fill="none" stroke="#8B6969" stroke-width="2" stroke-linecap="round"/>
  <!-- Whiskers -->
  <line x1="25" y1="62" x2="15" y2="58" stroke="#DDD" stroke-width="1.5" stroke-linecap="round"/>
  <line x1="25" y1="66" x2="14" y2="66" stroke="#DDD" stroke-width="1.5" stroke-linecap="round"/>
  <line x1="75" y1="62" x2="85" y2="58" stroke="#DDD" stroke-width="1.5" stroke-linecap="round"/>
  <line x1="75" y1="66" x2="86" y2="66" stroke="#DDD" stroke-width="1.5" stroke-linecap="round"/>
  <!-- Flower accessory -->
  <circle cx="22" cy="40" r="4" fill="#FFAB91"/>
  <circle cx="18" cy="38" r="3" fill="#FFCC80"/>
  <circle cx="20" cy="35" r="3" fill="#FFE082"/>
  <circle cx="24" cy="36" r="3" fill="#FFAB91"/>
  <circle cx="21" cy="38" r="2" fill="#FFF59D"/>
</svg>
