<svg xmlns="http://www.w3.org/2000/svg" viewBox="0 0 100 100">
  <!-- Soft nature background -->
  <circle cx="50" cy="50" r="48" fill="#E8F5E9"/>
  <!-- Gentle sparkles -->
  <circle cx="18" cy="22" r="1.5" fill="#81C784" opacity="0.6"/>
  <circle cx="82" cy="28" r="2" fill="#81C784" opacity="0.5"/>
  <circle cx="20" cy="78" r="1.5" fill="#81C784" opacity="0.5"/>
  <!-- Whimsical turtle shell -->
  <ellipse cx="50" cy="58" rx="35" ry="28" fill="#A5D6A7"/>
  <!-- Shell pattern - hexagonal plates -->
  <ellipse cx="50" cy="50" rx="12" ry="10" fill="#81C784"/>
  <ellipse cx="30" cy="55" rx="10" ry="8" fill="#81C784"/>
  <ellipse cx="70" cy="55" rx="10" ry="8" fill="#81C784"/>
  <ellipse cx="40" cy="70" rx="8" ry="6" fill="#81C784"/>
  <ellipse cx="60" cy="70" rx="8" ry="6" fill="#81C784"/>
  <ellipse cx="50" cy="38" rx="8" ry="6" fill="#81C784"/>
  <!-- Cute turtle head -->
  <ellipse cx="50" cy="22" rx="16" ry="14" fill="#C8E6C9"/>
  <!-- Dreamy eyes -->
  <circle cx="44" cy="20" r="5" fill="#fff"/>
  <circle cx="56" cy="20" r="5" fill="#fff"/>
  <circle cx="45" cy="21" r="3" fill="#5D4037"/>
  <circle cx="57" cy="21" r="3" fill="#5D4037"/>
  <circle cx="44" cy="19" r="1.2" fill="#fff"/>
  <circle cx="56" cy="19" r="1.2" fill="#fff"/>
  <!-- Rosy cheeks -->
  <circle cx="38" cy="26" r="4" fill="#FFCDD2" opacity="0.5"/>
  <circle cx="62" cy="26" r="4" fill="#FFCDD2" opacity="0.5"/>
  <!-- Gentle smile -->
  <path d="M 45 30 Q 50 34 55 30" fill="none" stroke="#5D4037" stroke-width="1.5" stroke-linecap="round"/>
  <!-- Cute little legs -->
  <ellipse cx="22" cy="50" rx="8" ry="6" fill="#C8E6C9"/>
  <ellipse cx="78" cy="50" rx="8" ry="6" fill="#C8E6C9"/>
  <ellipse cx="28" cy="75" rx="7" ry="5" fill="#C8E6C9"/>
  <ellipse cx="72" cy="75" rx="7" ry="5" fill="#C8E6C9"/>
  <!-- Small tail -->
  <ellipse cx="50" cy="88" rx="5" ry="4" fill="#C8E6C9"/>
  <!-- Flower on shell -->
  <circle cx="50" cy="50" r="4" fill="#FFAB91"/>
  <circle cx="46" cy="48" r="3" fill="#FFE082"/>
  <circle cx="54" cy="48" r="3" fill="#FFCC80"/>
  <circle cx="50" cy="46" r="3" fill="#FFAB91"/>
  <circle cx="50" cy="49" r="2" fill="#FFF59D"/>
</svg>
