<svg xmlns="http://www.w3.org/2000/svg" viewBox="0 0 100 100">
  <!-- Magical imagination background -->
  <circle cx="50" cy="50" r="48" fill="#F3E5F5"/>
  <!-- Floating imagination bubbles -->
  <circle cx="75" cy="20" r="10" fill="#E1BEE7" opacity="0.5"/>
  <circle cx="20" cy="25" r="8" fill="#BBDEFB" opacity="0.5"/>
  <circle cx="82" cy="45" r="6" fill="#C8E6C9" opacity="0.5"/>
  <!-- Child thinking/imagining -->
  <circle cx="45" cy="55" r="12" fill="#FFE4D6"/>
  <!-- Thoughtful hair -->
  <path d="M 34 50 Q 30 38 40 35 Q 50 32 55 38 Q 60 42 56 52" fill="#6D4C41"/>
  <ellipse cx="38" cy="42" rx="4" ry="6" fill="#6D4C41"/>
  <!-- Looking up with wonder eyes -->
  <circle cx="41" cy="52" r="3" fill="#5D4E37"/>
  <circle cx="49" cy="52" r="3" fill="#5D4E37"/>
  <circle cx="42" cy="51" r="1" fill="#fff"/>
  <circle cx="50" cy="51" r="1" fill="#fff"/>
  <!-- Rosy cheeks -->
  <circle cx="37" cy="58" r="3" fill="#FFB6C1" opacity="0.5"/>
  <circle cx="53" cy="58" r="3" fill="#FFB6C1" opacity="0.5"/>
  <!-- Curious smile -->
  <path d="M 42 62 Q 45 64 48 62" fill="none" stroke="#5D4E37" stroke-width="1.5" stroke-linecap="round"/>
  <!-- Body sitting -->
  <path d="M 38 66 L 35 85 L 55 85 L 52 66 Z" fill="#90CAF9"/>
  <!-- One arm up pointing to imagination -->
  <path d="M 52 68 Q 62 55 70 45" fill="none" stroke="#FFE4D6" stroke-width="5" stroke-linecap="round"/>
  <circle cx="70" cy="45" r="3" fill="#FFE4D6"/>
  <!-- Other arm resting -->
  <path d="M 38 70 Q 28 75 25 80" fill="none" stroke="#FFE4D6" stroke-width="5" stroke-linecap="round"/>
  <circle cx="25" cy="80" r="3" fill="#FFE4D6"/>
  <!-- Imagination cloud with magical content -->
  <ellipse cx="72" cy="25" rx="18" ry="12" fill="#fff" opacity="0.9"/>
  <ellipse cx="65" cy="28" rx="10" ry="8" fill="#fff" opacity="0.9"/>
  <ellipse cx="80" cy="28" rx="10" ry="8" fill="#fff" opacity="0.9"/>
  <!-- Star inside imagination -->
  <polygon points="72,18 74,23 79,23 75,26 77,31 72,28 67,31 69,26 65,23 70,23" fill="#FFD54F"/>
  <!-- Magic sparkles -->
  <circle cx="60" cy="35" r="1.5" fill="#CE93D8"/>
  <circle cx="85" cy="38" r="1.5" fill="#CE93D8"/>
  <circle cx="55" cy="20" r="1" fill="#CE93D8"/>
</svg>
