<svg xmlns="http://www.w3.org/2000/svg" viewBox="0 0 100 100">
  <!-- Dreamy night sky -->
  <circle cx="50" cy="50" r="48" fill="#2C3E50"/>
  <!-- Stars -->
  <circle cx="20" cy="20" r="1.5" fill="#FFE97F"/>
  <circle cx="75" cy="15" r="1" fill="#FFE97F"/>
  <circle cx="85" cy="35" r="1.5" fill="#FFE97F"/>
  <circle cx="15" cy="40" r="1" fill="#FFE97F"/>
  <circle cx="30" cy="30" r="0.8" fill="#FFE97F"/>
  <circle cx="70" cy="25" r="0.8" fill="#FFE97F"/>
  <!-- Crescent moon -->
  <path d="M 78 22 A 12 12 0 1 1 78 46 A 8 8 0 1 0 78 22" fill="#FFE97F"/>
  <!-- Fluffy cloud bed -->
  <ellipse cx="50" cy="70" rx="35" ry="15" fill="#E8E8FF" opacity="0.9"/>
  <ellipse cx="30" cy="65" rx="15" ry="10" fill="#E8E8FF" opacity="0.9"/>
  <ellipse cx="70" cy="65" rx="15" ry="10" fill="#E8E8FF" opacity="0.9"/>
  <!-- Sleeping child -->
  <circle cx="50" cy="55" r="10" fill="#FFE4D6"/>
  <!-- Peaceful sleeping face -->
  <path d="M 45 53 Q 47 51 49 53" fill="none" stroke="#5D4E37" stroke-width="1.5" stroke-linecap="round"/>
  <path d="M 51 53 Q 53 51 55 53" fill="none" stroke="#5D4E37" stroke-width="1.5" stroke-linecap="round"/>
  <!-- Rosy cheeks -->
  <circle cx="43" cy="57" r="2.5" fill="#FFB6C1" opacity="0.5"/>
  <circle cx="57" cy="57" r="2.5" fill="#FFB6C1" opacity="0.5"/>
  <!-- Gentle smile -->
  <path d="M 47 59 Q 50 61 53 59" fill="none" stroke="#5D4E37" stroke-width="1" stroke-linecap="round"/>
  <!-- Cozy blanket -->
  <path d="M 30 60 Q 35 75 50 78 Q 65 75 70 60" fill="#A8D8EA" opacity="0.8"/>
  <!-- Hair -->
  <path d="M 42 50 Q 40 42 48 40 Q 52 39 56 42 Q 60 44 58 50" fill="#8B7355"/>
  <!-- Zzz -->
  <text x="65" y="45" font-family="Arial" font-size="8" fill="#A8D8EA" opacity="0.8">z</text>
  <text x="70" y="40" font-family="Arial" font-size="6" fill="#A8D8EA" opacity="0.6">z</text>
  <text x="74" y="36" font-family="Arial" font-size="5" fill="#A8D8EA" opacity="0.4">z</text>
</svg>
